<?xml version="1.0" encoding="UTF-8" standalone="no"?>
<!-- Created with Inkscape (http://www.inkscape.org/) -->

<svg
   width="426.42728mm"
   height="23.175148mm"
   viewBox="0 0 426.42729 23.175148"
   version="1.1"
   id="svg1"
   inkscape:version="1.3 (0e150ed6c4, 2023-07-21)"
   sodipodi:docname="Legende.svg"
   xmlns:inkscape="http://www.inkscape.org/namespaces/inkscape"
   xmlns:sodipodi="http://sodipodi.sourceforge.net/DTD/sodipodi-0.dtd"
   xmlns="http://www.w3.org/2000/svg"
   xmlns:svg="http://www.w3.org/2000/svg">
  <sodipodi:namedview
     id="namedview1"
     pagecolor="#505050"
     bordercolor="#ffffff"
     borderopacity="1"
     inkscape:showpageshadow="0"
     inkscape:pageopacity="0"
     inkscape:pagecheckerboard="1"
     inkscape:deskcolor="#505050"
     inkscape:document-units="mm"
     inkscape:zoom="1.0520974"
     inkscape:cx="681.97108"
     inkscape:cy="-96.473958"
     inkscape:window-width="2560"
     inkscape:window-height="1377"
     inkscape:window-x="1192"
     inkscape:window-y="255"
     inkscape:window-maximized="1"
     inkscape:current-layer="layer1"
     showguides="true" />
  <defs
     id="defs1">
    <rect
       x="591.10541"
       y="26.883701"
       width="30.244164"
       height="20.162777"
       id="rect8" />
    <rect
       x="479.53802"
       y="28.899979"
       width="79.642967"
       height="93.084816"
       id="rect7" />
    <rect
       x="362.25787"
       y="19.826731"
       width="74.602272"
       height="92.748772"
       id="rect6" />
    <rect
       x="249.01028"
       y="22.851147"
       width="84.011566"
       height="109.21504"
       id="rect5" />
    <rect
       x="135.09061"
       y="21.843006"
       width="86.363892"
       height="116.9441"
       id="rect4" />
    <rect
       x="18.146498"
       y="17.138359"
       width="2588.4141"
       height="133.07433"
       id="rect3" />
  </defs>
  <g
     inkscape:label="Layer 1"
     inkscape:groupmode="layer"
     id="layer1"
     transform="translate(140.76809,0.75870865)">
    <path
       style="font-size:93.3333px;font-family:Arial;-inkscape-font-specification:Arial;white-space:pre;fill:#dbe2e8"
       d="M 25.529294,101.20905 V 34.399182 h 48.307273 v 7.884112 h -39.46613 v 20.462232 h 36.959621 v 7.838538 H 34.370437 v 22.740877 h 41.015609 v 7.884109 z m 61.022111,0 V 52.810634 h 7.382809 v 6.881507 q 5.332029,-7.975257 15.403636,-7.975257 4.375,0 8.02083,1.595051 3.69141,1.549479 5.51433,4.101561 1.82291,2.552083 2.55208,6.061196 0.45573,2.278645 0.45573,7.975257 v 29.759101 h -8.20313 V 71.76896 q 0,-5.013019 -0.95703,-7.473956 -0.95703,-2.506509 -3.41796,-3.964842 -2.41537,-1.503906 -5.69662,-1.503906 -5.24088,0 -9.069003,3.326822 -3.782551,3.326822 -3.782551,12.623693 v 26.432279 z m 69.817685,-7.337234 1.18489,7.246094 q -3.46354,0.72916 -6.19791,0.72916 -4.46615,0 -6.92708,-1.41276 -2.46094,-1.412757 -3.46354,-3.691402 -1.00261,-2.324217 -1.00261,-9.707027 V 59.190839 h -6.01562 v -6.380205 h 6.01562 V 40.824961 l 8.15755,-4.921873 v 16.907546 h 8.2487 v 6.380205 h -8.2487 V 87.49161 q 0,3.509113 0.41016,4.511717 0.45573,1.002604 1.41276,1.595051 1.0026,0.592448 2.82552,0.592448 1.36718,0 3.60026,-0.31901 z m 9.98047,7.337234 V 59.190839 h -7.2461 v -6.380205 h 7.2461 v -5.149738 q 0,-4.8763 0.86588,-7.246091 1.1849,-3.190103 4.14713,-5.149738 3.00782,-2.005207 8.38542,-2.005207 3.46354,0 7.65624,0.820312 l -1.23046,7.154945 q -2.55209,-0.455729 -4.83073,-0.455729 -3.73698,0 -5.28646,1.595052 -1.54948,1.595051 -1.54948,5.970049 v 4.466145 h 9.43359 v 6.380205 h -9.43359 v 42.018211 z m 57.10283,-15.585929 8.47656,1.048177 q -2.00521,7.428382 -7.42839,11.529943 -5.42317,4.101559 -13.85416,4.101559 -10.61848,0 -16.86197,-6.516922 -6.19791,-6.562498 -6.19791,-18.365879 0,-12.213537 6.28906,-18.958326 6.28906,-6.744789 16.31509,-6.744789 9.70703,0 15.85937,6.60807 6.15234,6.608071 6.15234,18.593743 0,0.729167 -0.0456,2.187499 h -36.09373 q 0.45572,7.975258 4.51171,12.213537 4.05599,4.23828 10.11719,4.23828 4.51171,0 7.70182,-2.369791 3.1901,-2.36979 5.05859,-7.565101 z M 196.5188,72.361407 h 27.02473 q -0.54687,-6.106768 -3.09895,-9.160152 -3.91927,-4.739582 -10.16276,-4.739582 -5.65104,0 -9.52474,3.782551 -3.82812,3.78255 -4.23828,10.117183 z m 45.61848,28.847643 V 52.810634 h 7.38281 v 7.337236 q 2.82552,-5.149737 5.19531,-6.790362 2.41536,-1.640624 5.28645,-1.640624 4.14714,0 8.43099,2.643228 l -2.82552,7.610674 q -3.00781,-1.777343 -6.01562,-1.777343 -2.6888,0 -4.83073,1.640625 -2.14193,1.595051 -3.05339,4.466144 -1.36718,4.374998 -1.36718,9.570309 v 25.338529 z m 31.17186,0 V 52.810634 h 7.38281 v 6.881507 q 5.33203,-7.975257 15.40364,-7.975257 4.375,0 8.02083,1.595051 3.69141,1.549479 5.51432,4.101561 1.82292,2.552083 2.55208,6.061196 0.45573,2.278645 0.45573,7.975257 v 29.759101 h -8.20312 V 71.76896 q 0,-5.013019 -0.95703,-7.473956 -0.95703,-2.506509 -3.41797,-3.964842 -2.41536,-1.503906 -5.69661,-1.503906 -5.24088,0 -9.06901,3.326822 -3.78255,3.326822 -3.78255,12.623693 v 26.432279 z m 83.62627,0 v -7.10937 q -5.65104,8.20312 -15.35807,8.20312 -4.28385,0 -8.02083,-1.64062 -3.6914,-1.640627 -5.51432,-4.101563 -1.77734,-2.50651 -2.50651,-6.106769 -0.5013,-2.415363 -0.5013,-7.656247 V 52.810634 h 8.20312 v 26.842437 q 0,6.425779 0.5013,8.658851 0.77474,3.235676 3.28125,5.104165 2.50651,1.822916 6.19792,1.822916 3.6914,0 6.92708,-1.868489 3.23567,-1.914062 4.55729,-5.149738 1.36719,-3.281248 1.36719,-9.479163 V 52.810634 h 8.20312 v 48.398416 z m 20.18879,0 V 52.810634 h 7.38281 v 6.881507 q 5.33203,-7.975257 15.40364,-7.975257 4.375,0 8.02083,1.595051 3.69141,1.549479 5.51432,4.101561 1.82292,2.552083 2.55209,6.061196 0.45573,2.278645 0.45573,7.975257 v 29.759101 h -8.20313 V 71.76896 q 0,-5.013019 -0.95703,-7.473956 -0.95703,-2.506509 -3.41796,-3.964842 -2.41537,-1.503906 -5.69662,-1.503906 -5.24088,0 -9.069,3.326822 -3.78255,3.326822 -3.78255,12.623693 v 26.432279 z m 50.40363,4.01042 7.97526,1.18489 q 0.5013,3.69141 2.77994,5.37761 3.05339,2.27864 8.33985,2.27864 5.69661,0 8.79556,-2.27864 3.09896,-2.27865 4.19271,-6.38021 0.63802,-2.50651 0.59245,-10.52734 -5.3776,6.33463 -13.39843,6.33463 -9.98047,0 -15.44922,-7.200516 -5.46874,-7.200518 -5.46874,-17.272128 0,-6.927081 2.50651,-12.760412 2.5065,-5.878904 7.24609,-9.069007 4.78515,-3.190103 11.21093,-3.190103 8.5677,0 14.1276,6.927081 v -5.833331 h 7.5651 v 41.835921 q 0,11.302075 -2.32422,15.996085 -2.27864,4.73958 -7.29166,7.47396 -4.96745,2.73437 -12.25911,2.73437 -8.65885,0 -13.99088,-3.91927 -5.33203,-3.87369 -5.14974,-11.71223 z m 6.79036,-29.075512 q 0,9.524736 3.78255,13.899734 3.78255,4.374999 9.47917,4.374999 5.65104,0 9.47916,-4.329426 3.82812,-4.374998 3.82812,-13.67187 0,-8.886715 -3.96484,-13.398432 -3.91927,-4.511717 -9.47916,-4.511717 -5.46875,0 -9.29687,4.466144 -3.82813,4.420571 -3.82813,13.170568 z m 96.2044,-7.884112 q 0,-11.848953 2.41537,-19.049472 2.46093,-7.24609 7.24609,-11.16536 4.83072,-3.919269 12.12239,-3.919269 5.3776,0 9.43359,2.187499 4.05599,2.141926 6.69921,6.243487 2.64323,4.055988 4.14714,9.934892 1.5039,5.833331 1.5039,15.768223 0,11.757808 -2.41536,19.003899 -2.41536,7.200518 -7.24609,11.165361 -4.78516,3.919274 -12.12239,3.919274 -9.66146,0 -15.17578,-6.927086 -6.60807,-8.33984 -6.60807,-27.161448 z m 8.43099,0 q 0,16.451817 3.82812,21.920565 3.8737,5.423175 9.52474,5.423175 5.65104,0 9.47916,-5.468748 3.8737,-5.468748 3.8737,-21.874992 0,-16.497389 -3.8737,-21.920564 -3.82812,-5.423175 -9.57031,-5.423175 -5.65104,0 -9.02343,4.785154 -4.23828,6.106769 -4.23828,22.558585 z m 48.0338,-6.106768 v -9.342444 h 9.34245 v 9.342444 z m 0,39.055972 v -9.342442 h 9.34245 v 9.342442 z m 155.99605,0 H 734.7803 V 48.936937 q -2.96223,2.82552 -7.79296,5.65104 -4.78516,2.825519 -8.61328,4.238279 v -7.929684 q 6.88151,-3.235676 12.03125,-7.838539 5.14973,-4.602863 7.29166,-8.932288 h 5.28646 z m 25.56639,-39.055972 v -9.342444 h 9.34245 v 9.342444 z m 0,39.055972 v -9.342442 h 9.34245 v 9.342442 z M 936.7594,93.324941 v 7.884109 h -44.16014 q -0.0911,-2.962236 0.95703,-5.69661 1.6862,-4.511717 5.37761,-8.886715 3.73697,-4.374999 10.7552,-10.117184 10.89192,-8.932288 14.72005,-14.127599 3.82812,-5.240883 3.82812,-9.889319 0,-4.8763 -3.50911,-8.203122 -3.46354,-3.372394 -9.06901,-3.372394 -5.92448,0 -9.47916,3.554686 -3.55469,3.554686 -3.60026,9.843746 l -8.43099,-0.865885 q 0.86589,-9.43359 6.51693,-14.355463 5.65104,-4.967446 15.17577,-4.967446 9.61588,0 15.22135,5.332029 5.60547,5.332029 5.60547,13.216141 0,4.010415 -1.64063,7.884111 -1.64062,3.873697 -5.46875,8.157549 -3.78255,4.283853 -12.62369,11.757808 -7.38281,6.197915 -9.47916,8.430987 -2.09636,2.187499 -3.46354,4.420571 z m 13.35286,-31.171863 v -9.342444 h 9.34245 v 9.342444 z m 0,39.055972 v -9.342442 h 9.34245 v 9.342442 z m 125.14324,-17.636709 8.2031,-1.09375 q 1.4127,6.972654 4.7851,10.071611 3.418,3.053384 8.2943,3.053384 5.7878,0 9.7526,-4.010415 4.0104,-4.010415 4.0104,-9.934892 0,-5.65104 -3.6914,-9.296872 -3.6914,-3.691405 -9.388,-3.691405 -2.3242,0 -5.7878,0.911458 l 0.9115,-7.200518 q 0.8203,0.09115 1.3216,0.09115 5.2409,0 9.4336,-2.734374 4.1927,-2.734374 4.1927,-8.430986 0,-4.511717 -3.0534,-7.473956 -3.0534,-2.962238 -7.8841,-2.962238 -4.7852,0 -7.9753,3.007811 -3.1901,3.007812 -4.1015,9.023434 l -8.2031,-1.458332 q 1.5039,-8.248695 6.8359,-12.760412 5.332,-4.55729 13.2617,-4.55729 5.4688,0 10.0716,2.369791 4.6029,2.324217 7.0182,6.380205 2.461,4.055989 2.461,8.613278 0,4.329426 -2.3242,7.884112 -2.3243,3.554686 -6.8815,5.65104 5.9244,1.367187 9.2057,5.696612 3.2812,4.283852 3.2812,10.755204 0,8.749997 -6.3802,14.856765 -6.3802,6.061198 -16.1328,6.061198 -8.7955,0 -14.6289,-5.240885 -5.7877,-5.240884 -6.608,-13.580724 z m 56.4191,-21.419263 v -9.342444 h 9.3425 v 9.342444 z m 0,39.055972 v -9.342442 h 9.3425 v 9.342442 z m 151.3932,0 V 85.212965 h -28.9843 v -7.519528 l 30.4882,-43.294255 h 6.6992 v 43.294255 h 9.0235 v 7.519528 h -9.0235 v 15.996085 z m 0,-23.515613 V 47.56975 l -20.9179,30.123687 z m 30.1693,-15.540359 v -9.342444 h 9.3425 v 9.342444 z m 0,39.055972 v -9.342442 h 9.3425 v 9.342442 z m 125.0977,-17.499991 8.6132,-0.729166 q 0.9571,6.28906 4.4206,9.479163 3.5091,3.14453 8.431,3.14453 5.9245,0 10.026,-4.466144 4.1016,-4.466144 4.1016,-11.848954 0,-7.018226 -3.9649,-11.074215 -3.9192,-4.055988 -10.2994,-4.055988 -3.9649,0 -7.155,1.822916 -3.1901,1.777343 -5.013,4.648436 l -7.7018,-1.002604 6.4713,-34.316393 h 33.2227 v 7.838539 h -26.6602 l -3.6002,17.955722 q 6.0156,-4.192707 12.6237,-4.192707 8.75,0 14.7656,6.061196 6.0156,6.061196 6.0156,15.585932 0,9.069007 -5.2864,15.677077 -6.4258,8.111981 -17.5456,8.111981 -9.1146,0 -14.9023,-5.10417 -5.7422,-5.104164 -6.5625,-13.535151 z m 71.4126,6.699216 V 72.08797 h -18.1836 v -7.656247 h 18.1836 V 46.248136 h 7.7474 v 18.183587 h 18.1836 v 7.656247 h -18.1836 v 18.320305 z m 39.5574,-28.255197 v -9.342444 h 9.3424 v 9.342444 z m 0,39.055972 v -9.342442 h 9.3424 v 9.342442 z"
       id="text3"
       transform="matrix(0.26458333,0,0,0.26458333,-147.52272,-9.5587131)"
       aria-label="Entfernung  0:    1:    2:    3:    4:    5+:   " />
  </g>
  <g
     inkscape:groupmode="layer"
     id="layer2"
     inkscape:label="kreise"
     transform="translate(139.48644,0.75870865)">
    <circle
       style="fill:#ffd000;fill-opacity:1;stroke-width:0.264584"
       id="path2"
       cx="23.017879"
       cy="10"
       r="10" />
    <circle
       style="fill:#ff7a00;fill-opacity:1;stroke-width:0.264583"
       id="path2-6"
       cx="71.095802"
       cy="10"
       r="10" />
    <circle
       style="fill:#ff9b40;fill-opacity:1;stroke-width:0.264583"
       id="path2-6-9"
       cx="118.82314"
       cy="10"
       r="10" />
    <circle
       style="fill:#ffbd80;fill-opacity:1;stroke-width:0.264583"
       id="path2-6-9-1"
       cx="167.21336"
       cy="10"
       r="10" />
    <circle
       style="fill:#ffdebf;fill-opacity:1;stroke-width:0.264583"
       id="path2-6-9-1-9"
       cx="215.03963"
       cy="10"
       r="10" />
    <circle
       style="fill:#ffffff;fill-opacity:1;stroke-width:0.264583"
       id="path2-6-9-1-9-2"
       cx="277.44379"
       cy="10"
       r="10" />
  </g>
</svg>
